<svg width="16" height="16" viewBox="0 0 16 16" fill="none" xmlns="http://www.w3.org/2000/svg">
<path d="M3.5 5.22217H12.5" stroke="black" stroke-width="1.4" stroke-linecap="square" stroke-linejoin="round"/>
<path d="M6.875 7.44446V10.7778" stroke="black" stroke-width="1.4" stroke-linecap="round" stroke-linejoin="round"/>
<path d="M9.12512 7.44446V10.7778" stroke="black" stroke-width="1.4" stroke-linecap="round" stroke-linejoin="round"/>
<path d="M4.06262 5.22217L4.62512 11.8889C4.62512 12.1835 4.74365 12.4662 4.95463 12.6745C5.16561 12.8829 5.45175 13 5.75012 13H10.2501C10.5485 13 10.8346 12.8829 11.0456 12.6745C11.2566 12.4662 11.3751 12.1835 11.3751 11.8889L11.9376 5.22217" stroke="black" stroke-width="1.4" stroke-linecap="round" stroke-linejoin="round"/>
<path d="M6.3125 5.22223V3.55556C6.3125 3.40821 6.37176 3.26691 6.47725 3.16272C6.58274 3.05853 6.72582 3 6.875 3H9.125C9.27418 3 9.41726 3.05853 9.52275 3.16272C9.62824 3.26691 9.6875 3.40821 9.6875 3.55556V5.22223" stroke="black" stroke-width="1.4" stroke-linecap="round" stroke-linejoin="round"/>
</svg>
