<svg width="16" height="16" viewBox="0 0 16 16" fill="none" xmlns="http://www.w3.org/2000/svg">
<path d="M3.5 12.5H6.43572L11.892 7.04373C12.0848 6.85097 12.2377 6.62213 12.342 6.37027C12.4463 6.11841 12.5 5.84848 12.5 5.57587C12.5 5.30326 12.4463 5.03332 12.342 4.78147C12.2377 4.52961 12.0848 4.30077 11.892 4.10801C11.6992 3.91525 11.4704 3.76234 11.2185 3.65802C10.9667 3.55369 10.6967 3.5 10.4241 3.5C10.1515 3.5 9.88159 3.55369 9.62973 3.65802C9.37788 3.76234 9.14903 3.91525 8.95627 4.10801L3.5 9.56428V12.5Z" stroke="#F5F5F5" stroke-width="1.4" stroke-linecap="round" stroke-linejoin="round"/>
<path d="M10.418 8.41797L7.57422 5.57422" stroke="#F5F5F5" stroke-width="1.4" stroke-linecap="round" stroke-linejoin="round"/>
</svg>
