<svg width="16" height="16" viewBox="0 0 16 16" fill="none" xmlns="http://www.w3.org/2000/svg">
<g clip-path="url(#clip0_175_1174)">
<path d="M3 7.66667C3 8.2795 3.12071 8.88634 3.35523 9.45252C3.58975 10.0187 3.93349 10.5332 4.36683 10.9665C4.80017 11.3998 5.31462 11.7436 5.88081 11.9781C6.447 12.2126 7.05383 12.3333 7.66667 12.3333C8.2795 12.3333 8.88634 12.2126 9.45252 11.9781C10.0187 11.7436 10.5332 11.3998 10.9665 10.9665C11.3998 10.5332 11.7436 10.0187 11.9781 9.45252C12.2126 8.88634 12.3333 8.2795 12.3333 7.66667C12.3333 7.05383 12.2126 6.447 11.9781 5.88081C11.7436 5.31462 11.3998 4.80017 10.9665 4.36683C10.5332 3.93349 10.0187 3.58975 9.45252 3.35523C8.88634 3.12071 8.2795 3 7.66667 3C7.05383 3 6.447 3.12071 5.88081 3.35523C5.31462 3.58975 4.80017 3.93349 4.36683 4.36683C3.93349 4.80017 3.58975 5.31462 3.35523 5.88081C3.12071 6.447 3 7.05383 3 7.66667Z" stroke="#AAAAAA" stroke-width="1.5" stroke-linecap="round" stroke-linejoin="round"/>
<path d="M13 13L11 11" stroke="#AAAAAA" stroke-width="1.5" stroke-linecap="square" stroke-linejoin="round"/>
</g>
<defs>
<clipPath id="clip0_175_1174">
<rect width="16" height="16" fill="white"/>
</clipPath>
</defs>
</svg>
