<svg width="16" height="16" viewBox="0 0 16 16" fill="none" xmlns="http://www.w3.org/2000/svg">
<g clip-path="url(#clip0_207_42487)">
<path d="M9.51465 5.0987L5.78838 8.82497C5.56032 9.05303 5.43219 9.36235 5.43219 9.68488C5.43219 10.0074 5.56032 10.3167 5.78838 10.5448C6.01644 10.7729 6.32576 10.901 6.64829 10.901C6.97082 10.901 7.28014 10.7729 7.5082 10.5448L11.2345 6.81852C11.6906 6.36239 11.9468 5.74375 11.9468 5.0987C11.9468 4.45364 11.6906 3.835 11.2345 3.37888C10.7783 2.92275 10.1597 2.6665 9.51465 2.6665C8.8696 2.6665 8.25096 2.92275 7.79483 3.37888L4.06856 7.10515C3.38437 7.78934 3 8.7173 3 9.68488C3 10.6525 3.38437 11.5804 4.06856 12.2646C4.75275 12.9488 5.6807 13.3332 6.64829 13.3332C7.61587 13.3332 8.54383 12.9488 9.22802 12.2646L12.9543 8.53834" stroke="black" stroke-linecap="round" stroke-linejoin="round"/>
</g>
<defs>
<clipPath id="clip0_207_42487">
<rect width="16" height="16" fill="white"/>
</clipPath>
</defs>
</svg>
