<svg width="24" height="24" viewBox="0 0 24 24" fill="none" xmlns="http://www.w3.org/2000/svg">
<path d="M15.6211 3.75C17.4059 3.92482 18.6909 5.09943 19.2148 5.9082L19.3105 6.06543C19.5927 6.56927 19.7773 6.85343 19.9287 7.46094C20.0877 8.09895 20.2078 9.10358 20.2471 10.9805C20.2471 10.9843 20.247 10.9896 20.2471 10.9961C20.2472 11.0119 20.2478 11.0353 20.248 11.0654C20.2485 11.1259 20.2486 11.2139 20.249 11.3223C20.2499 11.5392 20.2508 11.839 20.249 12.1689C20.2454 12.8368 20.2321 13.604 20.1982 14.0752V14.0762C20.1219 15.1415 20.1607 16.531 19.1689 17.9844C18.1998 19.4047 16.761 19.8344 16.1562 19.9912C15.9091 20.0549 15.3383 20.1229 14.5518 20.1729C13.788 20.2213 12.8804 20.2499 12 20.25L11.3359 20.2451C10.6731 20.2348 10.0201 20.2089 9.44824 20.1719C8.66145 20.121 8.09485 20.0518 7.85156 19.9863L7.84375 19.9844L7.5791 19.9111C6.88461 19.7047 5.67936 19.2198 4.83105 17.9766C4.0874 16.8867 3.92328 15.8308 3.85547 14.9229L3.80176 14.0684C3.76778 13.5909 3.75458 12.8226 3.75098 12.1562C3.7492 11.8269 3.75008 11.5285 3.75098 11.3125C3.75142 11.2048 3.75151 11.1177 3.75195 11.0576C3.75217 11.0276 3.75279 11.004 3.75293 10.9883C3.75299 10.9818 3.75289 10.9765 3.75293 10.9727C3.79221 9.09336 3.91004 8.08727 4.06641 7.44922C4.21484 6.8437 4.39575 6.56138 4.67383 6.06738C5.12421 5.26726 6.46164 3.93653 8.36426 3.75H15.6211Z" stroke="black" stroke-width="1.5"/>
<path d="M9.00001 12C9.40597 12 9.75 11.6628 9.75 11.25C9.75 10.8372 9.40597 10.5 9.00001 10.5C8.59404 10.5 8.25 10.8372 8.25 11.25C8.25 11.6628 8.58028 12 9.00001 12Z" fill="black"/>
<path d="M15 12C15.406 12 15.75 11.6628 15.75 11.25C15.75 10.8372 15.406 10.5 15 10.5C14.594 10.5 14.25 10.8372 14.25 11.25C14.25 11.6628 14.594 12 15 12Z" fill="black"/>
<path d="M7.5 20.25V21H16.5V20.25" stroke="black" stroke-width="1.5" stroke-linejoin="round"/>
</svg>
