<svg width="24" height="24" viewBox="0 0 24 24" fill="none" xmlns="http://www.w3.org/2000/svg">
<path d="M14.6667 20H6.66667C5.95942 20 5.28115 19.719 4.78105 19.219C4.28095 18.7189 4 18.0406 4 17.3333V16.4444H12.8889V18.2222C12.8889 18.6937 13.0762 19.1459 13.4096 19.4793C13.743 19.8127 14.1952 20 14.6667 20ZM14.6667 20C15.1382 20 15.5903 19.8127 15.9237 19.4793C16.2571 19.1459 16.4444 18.6937 16.4444 18.2222V5.77778C16.4444 5.42617 16.5487 5.08245 16.7441 4.7901C16.9394 4.49774 17.217 4.26988 17.5419 4.13533C17.8667 4.00077 18.2242 3.96556 18.569 4.03416C18.9139 4.10276 19.2307 4.27207 19.4793 4.5207C19.7279 4.76933 19.8972 5.0861 19.9658 5.43095C20.0344 5.77581 19.9992 6.13326 19.8647 6.4581C19.7301 6.78295 19.5023 7.0606 19.2099 7.25595C18.9175 7.45129 18.5738 7.55556 18.2222 7.55556H16.4444M18.2222 4H8.44444C7.7372 4 7.05892 4.28095 6.55883 4.78105C6.05873 5.28115 5.77778 5.95942 5.77778 6.66667V16.4444" stroke="#333333" stroke-width="1.5" stroke-linecap="round" stroke-linejoin="round"/>
<path d="M9 8H13" stroke="#333333" stroke-width="1.5" stroke-linecap="round" stroke-linejoin="round"/>
<path d="M9 11H13" stroke="#333333" stroke-width="1.5" stroke-linecap="round" stroke-linejoin="round"/>
</svg>
