<svg width="24" height="24" viewBox="0 0 24 24" fill="none" xmlns="http://www.w3.org/2000/svg">
<path d="M12 4.75024C12.3729 4.75024 12.7365 4.85864 13.0469 5.06079L13.1768 5.15356L18.5098 9.2981C18.9767 9.66056 19.25 10.2183 19.25 10.8088V18.0022C19.25 18.333 19.1181 18.6499 18.8838 18.884C18.6494 19.1182 18.3317 19.2502 18 19.2502H6C5.66825 19.2502 5.35058 19.1182 5.11621 18.884C4.88191 18.6499 4.75003 18.333 4.75 18.0022V10.8088C4.74986 10.5176 4.81633 10.2297 4.94434 9.96802C5.07241 9.70625 5.25893 9.47705 5.48926 9.2981L10.8232 5.15356C11.1596 4.89216 11.5737 4.75024 12 4.75024Z" stroke="#333333" stroke-width="1.5" stroke-linecap="round" stroke-linejoin="round"/>
</svg>
