<svg width="24" height="24" viewBox="0 0 24 24" fill="none" xmlns="http://www.w3.org/2000/svg">
<path d="M10.75 6.25C10.75 6.94036 11.3096 7.5 12 7.5C12.6904 7.5 13.25 6.94036 13.25 6.25C13.25 5.55964 12.6904 5 12 5C11.3096 5 10.75 5.55964 10.75 6.25Z" fill="#999999"/>
<path d="M10.75 11.83C10.75 12.5204 11.3096 13.08 12 13.08C12.6904 13.08 13.25 12.5204 13.25 11.83C13.25 11.1396 12.6904 10.58 12 10.58C11.3096 10.58 10.75 11.1396 10.75 11.83Z" fill="#999999"/>
<path d="M10.75 17.41C10.75 18.1004 11.3096 18.66 12 18.66C12.6904 18.66 13.25 18.1004 13.25 17.41C13.25 16.7196 12.6904 16.16 12 16.16C11.3096 16.16 10.75 16.7196 10.75 17.41Z" fill="#999999"/>
</svg>
