<svg width="24" height="24" viewBox="0 0 24 24" fill="none" xmlns="http://www.w3.org/2000/svg">
<path d="M13.8333 8.33366V6.50033C13.8333 6.0141 13.6402 5.54778 13.2964 5.20396C12.9525 4.86015 12.4862 4.66699 12 4.66699H5.58333C5.0971 4.66699 4.63079 4.86015 4.28697 5.20396C3.94315 5.54778 3.75 6.0141 3.75 6.50033V17.5003C3.75 17.9866 3.94315 18.4529 4.28697 18.7967C4.63079 19.1405 5.0971 19.3337 5.58333 19.3337H12C12.4862 19.3337 12.9525 19.1405 13.2964 18.7967C13.6402 18.4529 13.8333 17.9866 13.8333 17.5003V15.667" stroke="black" stroke-width="1.5" stroke-linecap="round" stroke-linejoin="round"/>
<path d="M9.25 12H20.25L17.5 9.25" stroke="black" stroke-width="1.5" stroke-linecap="round" stroke-linejoin="round"/>
<path d="M17.5 14.75L20.25 12" stroke="black" stroke-width="1.5" stroke-linecap="round" stroke-linejoin="round"/>
</svg>
