<svg width="24" height="24" viewBox="0 0 24 24" fill="none" xmlns="http://www.w3.org/2000/svg">
<g clip-path="url(#clip0_1511_15552)">
<path d="M12 3.75C13.0834 3.75 14.1563 3.96333 15.1572 4.37793C16.1581 4.79253 17.0679 5.39995 17.834 6.16602C18.6001 6.93209 19.2075 7.84186 19.6221 8.84277C20.0367 9.84371 20.25 10.9166 20.25 12C20.25 13.0834 20.0367 14.1563 19.6221 15.1572C19.2075 16.1581 18.6001 17.0679 17.834 17.834C17.0679 18.6001 16.1581 19.2075 15.1572 19.6221C14.1563 20.0367 13.0834 20.25 12 20.25C10.9166 20.25 9.84371 20.0367 8.84277 19.6221C7.84186 19.2075 6.93209 18.6001 6.16602 17.834C5.39995 17.0679 4.79253 16.1581 4.37793 15.1572C3.96333 14.1563 3.75 13.0834 3.75 12L3.75977 11.5947C3.80624 10.6498 4.0151 9.71872 4.37793 8.84277C4.79253 7.84186 5.39995 6.93209 6.16602 6.16602C6.93209 5.39995 7.84186 4.79253 8.84277 4.37793C9.84371 3.96333 10.9166 3.75 12 3.75Z" stroke="black" stroke-width="1.5" stroke-linecap="round" stroke-linejoin="round"/>
<path d="M12 12H15.5" stroke="black" stroke-width="1.5" stroke-linecap="round" stroke-linejoin="round"/>
<path d="M12 7V12" stroke="black" stroke-width="1.5" stroke-linecap="round" stroke-linejoin="round"/>
</g>
<defs>
<clipPath id="clip0_1511_15552">
<rect width="24" height="24" fill="white"/>
</clipPath>
</defs>
</svg>
