<svg width="24" height="24" viewBox="0 0 24 24" fill="none" xmlns="http://www.w3.org/2000/svg">
<path d="M4.5 7.83366C4.5 7.39163 4.67559 6.96771 4.98816 6.65515C5.30072 6.34259 5.72464 6.16699 6.16667 6.16699H17.8333C18.2754 6.16699 18.6993 6.34259 19.0118 6.65515C19.3244 6.96771 19.5 7.39163 19.5 7.83366V16.167C19.5 16.609 19.3244 17.0329 19.0118 17.3455C18.6993 17.6581 18.2754 17.8337 17.8333 17.8337H6.16667C5.72464 17.8337 5.30072 17.6581 4.98816 17.3455C4.67559 17.0329 4.5 16.609 4.5 16.167V7.83366Z" stroke="black" stroke-width="1.5" stroke-linecap="round" stroke-linejoin="round"/>
<path d="M4.5 7.83398L12 12.834L19.5 7.83398" stroke="black" stroke-width="1.5" stroke-linecap="round" stroke-linejoin="round"/>
</svg>
