<svg width="24" height="24" viewBox="0 0 24 24" fill="none" xmlns="http://www.w3.org/2000/svg">
<g clip-path="url(#clip0_49_3187)">
<path d="M5.70007 8.16569C5.70007 9.11138 6.07936 10.0183 6.75449 10.687C7.42962 11.3557 8.34529 11.7314 9.30007 11.7314C10.2549 11.7314 11.1705 11.3557 11.8457 10.687C12.5208 10.0183 12.9001 9.11138 12.9001 8.16569C12.9001 7.22 12.5208 6.31305 11.8457 5.64435C11.1705 4.97565 10.2549 4.59998 9.30007 4.59998C8.34529 4.59998 7.42962 4.97565 6.75449 5.64435C6.07936 6.31305 5.70007 7.22 5.70007 8.16569Z" stroke="black" stroke-width="1.5" stroke-linecap="round" stroke-linejoin="round"/>
<path d="M15.6 4.71588C16.3743 4.91226 17.0607 5.35833 17.5509 5.98377C18.041 6.6092 18.307 7.37843 18.307 8.17017C18.307 8.96191 18.041 9.73113 17.5509 10.3566C17.0607 10.982 16.3743 11.4281 15.6 11.6245" stroke="black" stroke-width="1.5" stroke-linecap="round" stroke-linejoin="round"/>
<path d="M14.7 19.4C14.7 16.6385 12.4614 14.4 9.70002 14.4H8.90002C6.1386 14.4 3.90002 16.6385 3.90002 19.4" stroke="black" stroke-width="1.5" stroke-linecap="round"/>
<path d="M16.9501 14.4L16.9897 14.4193C18.893 15.3489 20.1001 17.2818 20.1001 19.4" stroke="black" stroke-width="1.5" stroke-linecap="round"/>
</g>
<defs>
<clipPath id="clip0_49_3187">
<rect width="24" height="24" fill="white"/>
</clipPath>
</defs>
</svg>
