<svg width="32" height="32" viewBox="0 0 32 32" fill="none" xmlns="http://www.w3.org/2000/svg">
<path d="M15.9999 6C16.8681 6 17.6773 6.41079 18.1728 7.09692L18.2682 7.23766L25.645 19.1551C25.8692 19.5308 25.9912 19.9553 25.9995 20.3891C26.0079 20.8228 25.9023 21.2515 25.6927 21.635C25.4832 22.0184 25.1764 22.3442 24.8013 22.5817C24.4261 22.8192 23.9947 22.9607 23.5476 22.993L23.3703 23H8.61944C8.17187 22.9951 7.73288 22.8806 7.34343 22.6672C6.95398 22.4537 6.62678 22.1482 6.39237 21.7793C6.15796 21.4104 6.02397 20.99 6.00293 20.5574C5.98189 20.1248 6.07447 19.6941 6.27203 19.3055L6.36203 19.1428L13.7352 7.23414C13.9713 6.85749 14.3037 6.54605 14.7004 6.32988C15.0971 6.11371 15.5446 6.0001 15.9999 6Z" fill="#FF383C"/>
<path fill-rule="evenodd" clip-rule="evenodd" d="M16.75 18.0417V19.5244H15.25V18.0417H16.75Z" fill="white"/>
<path fill-rule="evenodd" clip-rule="evenodd" d="M16.75 11.6667V17.0311H15.25V11.6667H16.75Z" fill="white"/>
</svg>
