<svg width="32" height="32" viewBox="0 0 32 32" fill="none" xmlns="http://www.w3.org/2000/svg">
<path fill-rule="evenodd" clip-rule="evenodd" d="M7.25 16C7.25 20.8344 11.1656 24.75 16 24.75C20.8344 24.75 24.75 20.8344 24.75 16C24.75 11.1656 20.8344 7.25 16 7.25C11.1656 7.25 7.25 11.1656 7.25 16ZM13.796 12.7353L13.2656 12.205L12.205 13.2656L12.7353 13.796L14.9393 16L12.7353 18.204L12.205 18.7344L13.2656 19.795L13.796 19.2647L16 17.0607L18.204 19.2647L18.7344 19.795L19.795 18.7344L19.2647 18.204L17.0607 16L19.2647 13.796L19.795 13.2656L18.7344 12.205L18.204 12.7353L16 14.9393L13.796 12.7353Z" fill="#999999"/>
</svg>
