<svg width="32" height="32" viewBox="0 0 32 32" fill="none" xmlns="http://www.w3.org/2000/svg">
    <path d="M20.95 21.253A7.935 7.935 0 0 1 16 23c-3.984 0-7.293-2.958-7.988-6.857a.787.787 0 0 1 0-.276A8.438 8.438 0 0 1 10.761 11m2.782-1.606A7.734 7.734 0 0 1 16 9c3.985 0 7.293 2.97 7.988 6.867a.787.787 0 0 1 0 .272 8.397 8.397 0 0 1-1.325 3.276m-6.27-7.265c1.764.19 3.167 1.621 3.351 3.45" stroke="#000" stroke-width="1.5" stroke-linecap="round" stroke-linejoin="round"/>
    <path d="M16 19.895a3.709 3.709 0 0 0 0 0zm0 0c-2.076 0-3.758-1.737-3.758-3.88m0 0a3.96 3.96 0 0 1 0 0zM9 9l14 14" stroke="#000" stroke-width="1.5" stroke-linecap="round" stroke-linejoin="round"/>
</svg>
