<svg width="48" height="48" viewBox="0 0 48 48" fill="none" xmlns="http://www.w3.org/2000/svg">
<path d="M20.5411 31.7504H20.5549" stroke="black" stroke-width="2" stroke-linecap="round" stroke-linejoin="round"/>
<path d="M16.5612 27.744C17.6169 26.6817 19.0485 26.0849 20.5411 26.0849" stroke="black" stroke-width="2" stroke-linecap="round" stroke-linejoin="round"/>
<path d="M12.5798 23.7363C13.6253 22.6838 14.8665 21.849 16.2325 21.2794C17.5985 20.7098 19.0625 20.4166 20.5411 20.4166C20.9552 20.4166 21.3682 20.4396 21.7782 20.4852" stroke="black" stroke-width="2" stroke-linecap="round" stroke-linejoin="round"/>
<path d="M8.59998 19.7299C13.2489 15.0491 19.9344 13.6681 25.8 15.5867" stroke="black" stroke-width="2" stroke-linecap="round" stroke-linejoin="round"/>
<path fill-rule="evenodd" clip-rule="evenodd" d="M23.4 25.2504C23.4 26.3009 23.607 27.3412 24.009 28.3118C24.411 29.2824 25.0003 30.1643 25.7432 30.9072C26.486 31.6501 27.368 32.2393 28.3386 32.6414C29.3092 33.0434 30.3494 33.2504 31.4 33.2504C32.4506 33.2504 33.4909 33.0434 34.4615 32.6414C35.4321 32.2393 36.314 31.6501 37.0569 30.9072C37.7997 30.1643 38.389 29.2824 38.7911 28.3118C39.1931 27.3412 39.4 26.3009 39.4 25.2504C39.4 24.1998 39.1931 23.1595 38.7911 22.1889C38.389 21.2183 37.7997 20.3364 37.0569 19.5935C36.314 18.8506 35.4321 18.2614 34.4615 17.8593C33.4909 17.4573 32.4506 17.2504 31.4 17.2504C30.3494 17.2504 29.3092 17.4573 28.3386 17.8593C27.368 18.2614 26.486 18.8506 25.7432 19.5935C25.0003 20.3364 24.411 21.2183 24.009 22.1889C23.607 23.1595 23.4 24.1998 23.4 25.2504ZM31.4 21.0004C31.9523 21.0004 32.4 21.4481 32.4 22.0004V25.0004C32.4 25.5526 31.9523 26.0004 31.4 26.0004C30.8477 26.0004 30.4 25.5526 30.4 25.0004V22.0004C30.4 21.4481 30.8477 21.0004 31.4 21.0004ZM32.4 28.2504C32.4 27.6981 31.9523 27.2504 31.4 27.2504C30.8477 27.2504 30.4 27.6981 30.4 28.2504V28.2579C30.4 28.8101 30.8477 29.2579 31.4 29.2579C31.9523 29.2579 32.4 28.8101 32.4 28.2579V28.2504Z" fill="black"/>
</svg>
