<svg width="192" height="30" viewBox="0 0 192 30" fill="none" xmlns="http://www.w3.org/2000/svg">
<path d="M141.41 29.0001C141.831 29.0001 142.171 28.6589 142.171 28.239V21.5413C143.395 23.042 145.263 23.9401 147.495 23.9401C151.482 23.9401 154.313 21.0301 154.313 16.9443C154.313 12.8585 151.482 9.89526 147.495 9.89526C143.508 9.89526 140.622 12.8052 140.622 16.9443V28.239C140.622 28.6589 140.99 29.0001 141.41 29.0001ZM147.488 11.283C150.581 11.283 152.812 13.5866 152.812 16.9697C152.812 20.3528 150.581 22.5511 147.488 22.5511C144.396 22.5511 142.139 20.2475 142.139 16.9697C142.139 13.6919 144.342 11.283 147.488 11.283Z" fill="white"/>
<path d="M86.1158 21.9954V16.1755C86.1158 14.4148 84.6887 12.989 82.9268 12.989C81.1649 12.989 79.7378 14.4148 79.7378 16.1755V21.9954C79.7378 23.1814 80.7019 24.1391 81.8841 24.1391H83.9644C85.1517 24.1391 86.1095 23.1763 86.1095 21.9954H86.1158Z" fill="white"/>
<path d="M82.9369 11.4188C84.7014 11.4188 86.131 9.98918 86.131 8.22723C86.131 6.46529 84.7014 5.03442 82.9369 5.03442C81.1725 5.03442 79.7441 6.46402 79.7441 8.22723C79.7441 9.99045 81.1737 11.4188 82.9369 11.4188Z" fill="white"/>
<path d="M66.9628 5.05591C61.6833 5.05591 57.4034 9.33328 57.4034 14.6115V20.9527C57.4034 22.7134 58.8291 24.1392 60.5911 24.1392C62.353 24.1392 63.7801 22.7134 63.7801 20.9527V14.6115C63.7801 12.8508 65.2072 11.425 66.9691 11.425C68.731 11.425 70.1568 12.8508 70.1568 14.6115V20.9527C70.1568 22.7134 71.5839 24.1392 73.3458 24.1392C75.1078 24.1392 76.5336 22.7134 76.5336 20.9527V14.6115C76.5336 9.33328 72.2537 5.05591 66.9742 5.05591H66.9628Z" fill="white"/>
<path d="M4.06681 5.05596H1.07569C0.484566 5.05596 0 5.53418 0 6.13037V9.11515C0 9.33333 0.287949 9.40817 0.399577 9.2217C1.31416 7.66779 2.61945 6.37012 4.16829 5.45426C4.35475 5.34264 4.27991 5.05469 4.06173 5.05469H4.06681V5.05596Z" fill="#EAB722"/>
<path d="M20.2376 12.2C20.7641 11.7421 21.4465 11.4554 22.1911 11.4287C24.0114 11.359 25.5019 12.9078 25.5019 14.7332V20.8461C25.5019 22.5433 26.7843 24.0224 28.4778 24.134C30.3361 24.2558 31.8786 22.7831 31.8786 20.9577V14.8397C31.8799 9.55136 27.6736 5.09766 22.3827 5.06088C20.3924 5.04439 18.5391 5.64566 17.0068 6.67314C16.8951 6.74798 16.885 6.91288 16.9801 7.00295C18.3856 8.37039 19.4182 10.1209 19.8977 12.0896C19.9345 12.2444 20.1209 12.3078 20.244 12.2063L20.2389 12.2013L20.2376 12.2Z" fill="white"/>
<path d="M9.56575 5.05591C4.28499 5.05591 0.00507355 9.33328 0.00507355 14.6102V20.9515C0.00507355 22.7121 1.43213 24.1379 3.19408 24.1379C4.95602 24.1379 6.38308 22.7121 6.38308 20.9515V14.6102C6.38308 12.8496 7.81014 11.4238 9.57209 11.4238C11.334 11.4238 12.7611 12.8496 12.7611 14.6102V20.9515C12.7611 22.7121 14.1882 24.1379 15.9501 24.1379C17.712 24.1379 19.1391 22.7121 19.1391 20.9515V14.6102C19.1366 9.33328 14.8567 5.05591 9.57589 5.05591H9.56575Z" fill="white"/>
<path d="M44.6385 5.06104C39.3691 5.06104 35.0943 9.33334 35.0943 14.6001C35.0943 19.8669 39.3691 24.1393 44.6385 24.1393C49.9078 24.1393 54.1826 19.8669 54.1826 14.6001C54.1826 9.33334 49.9091 5.06104 44.6385 5.06104ZM44.6385 17.7815C42.8829 17.7815 41.4558 16.3557 41.4558 14.6001C41.4558 12.8445 42.8829 11.4187 44.6385 11.4187C46.3941 11.4187 47.8224 12.8445 47.8224 14.6001C47.8224 16.3557 46.3953 17.7815 44.6385 17.7815Z" fill="white"/>
<path d="M106.102 16.2731L110.102 23.2118C110.348 23.6495 110.184 24.1416 109.773 24.3877C109.636 24.4702 109.499 24.4968 109.364 24.4968C109.063 24.4968 108.762 24.3332 108.597 24.0871L104.406 16.7108C104.297 16.5192 104.093 16.4013 103.872 16.4013H98.268V23.6355C98.268 24.1112 97.8824 24.4968 97.4067 24.4968C96.931 24.4968 96.5454 24.1112 96.5454 23.6355V6.46258C96.5454 5.65835 97.2038 5 98.008 5H104.338C108.275 5 110.217 7.84397 110.217 10.6879C110.217 12.8863 109.059 15.0376 106.754 15.989C106.589 16.0575 106.102 16.2731 106.102 16.2731ZM98.268 14.789H104.283C107.127 14.789 108.549 12.7112 108.549 10.66C108.549 8.60888 107.127 6.61353 104.283 6.61353H98.8833C98.5433 6.61353 98.268 6.88879 98.268 7.22875V14.789Z" fill="white"/>
<path d="M113.307 17.8246C113.581 20.9693 115.796 23.075 118.83 23.075C120.361 23.075 121.729 22.7464 122.877 22.0627C123.068 21.9257 123.26 21.8991 123.452 21.8991C123.861 21.8991 124.135 22.1997 124.135 22.5549C124.135 22.8289 123.998 23.1016 123.643 23.2931C122.194 24.223 120.635 24.5236 118.83 24.5236C114.675 24.5236 111.72 21.4881 111.72 17.1955C111.72 12.9029 114.564 9.89526 118.556 9.89526C122.548 9.89526 125.31 12.8483 125.31 16.9773C125.31 17.6331 124.846 17.8246 124.489 17.8246H113.306H113.307ZM113.307 16.6487H123.726C123.589 13.5041 121.483 11.3439 118.558 11.3439C115.633 11.3439 113.527 13.5041 113.307 16.6487Z" fill="white"/>
<path d="M134.498 10.9606C134.826 11.1521 134.963 11.4261 134.963 11.6989C134.963 12.0541 134.689 12.3547 134.307 12.3547C134.144 12.3547 133.952 12.3001 133.761 12.191C132.859 11.671 131.846 11.3437 130.698 11.3437C128.812 11.3437 127.828 12.4105 127.828 13.5585C127.828 17.0583 135.457 15.5551 135.457 20.6405C135.457 22.8008 133.706 24.5779 130.589 24.5779C129.058 24.5779 127.745 24.2773 126.543 23.5111C126.188 23.3196 126.051 23.0469 126.051 22.7729C126.051 22.4177 126.325 22.117 126.734 22.117C126.926 22.117 127.117 22.1716 127.309 22.2807C128.239 22.8274 129.36 23.128 130.591 23.128C132.805 23.128 133.899 21.8976 133.899 20.6672C133.899 16.8388 126.297 18.3978 126.297 13.5851C126.297 11.5619 127.828 9.8938 130.7 9.8938C132.122 9.8938 133.352 10.2223 134.5 10.9606H134.498Z" fill="white"/>
<path d="M180.652 10.9606C180.98 11.1521 181.117 11.4261 181.117 11.6989C181.117 12.0541 180.843 12.3547 180.462 12.3547C180.298 12.3547 180.106 12.3001 179.915 12.191C179.013 11.671 178.001 11.3437 176.853 11.3437C174.967 11.3437 173.982 12.4105 173.982 13.5585C173.982 17.0583 181.611 15.5551 181.611 20.6405C181.611 22.8008 179.86 24.5779 176.744 24.5779C175.213 24.5779 173.9 24.2773 172.697 23.5111C172.342 23.3196 172.205 23.0469 172.205 22.7729C172.205 22.4177 172.479 22.117 172.889 22.117C173.08 22.117 173.272 22.1716 173.463 22.2807C174.393 22.8274 175.515 23.128 176.745 23.128C178.96 23.128 180.053 21.8976 180.053 20.6672C180.053 16.8388 172.451 18.3978 172.451 13.5851C172.451 11.5619 173.982 9.8938 176.854 9.8938C178.276 9.8938 179.506 10.2223 180.654 10.9606H180.652Z" fill="white"/>
<path d="M190.879 10.9606C191.207 11.1521 191.344 11.4261 191.344 11.6989C191.344 12.0541 191.07 12.3547 190.688 12.3547C190.525 12.3547 190.333 12.3001 190.142 12.191C189.24 11.671 188.227 11.3437 187.079 11.3437C185.193 11.3437 184.209 12.4105 184.209 13.5585C184.209 17.0583 191.838 15.5551 191.838 20.6405C191.838 22.8008 190.087 24.5779 186.97 24.5779C185.439 24.5779 184.126 24.2773 182.924 23.5111C182.569 23.3196 182.432 23.0469 182.432 22.7729C182.432 22.4177 182.706 22.117 183.115 22.117C183.307 22.117 183.498 22.1716 183.69 22.2807C184.62 22.8274 185.741 23.128 186.972 23.128C189.186 23.128 190.28 21.8976 190.28 20.6672C190.28 16.8388 182.678 18.3978 182.678 13.5851C182.678 11.5619 184.209 9.8938 187.081 9.8938C188.503 9.8938 189.733 10.2223 190.881 10.9606H190.879Z" fill="white"/>
<path d="M170.254 23.7358V16.9583C170.254 12.8115 167.363 9.89526 163.367 9.89526C159.372 9.89526 156.535 12.8648 156.535 16.9583C156.535 21.0517 159.372 23.968 163.367 23.968C165.602 23.968 167.475 23.0674 168.701 21.5642V23.7358C168.701 24.157 169.043 24.4982 169.464 24.4982C169.885 24.4982 170.253 24.157 170.253 23.7358H170.254ZM168.733 16.9849C168.733 20.269 166.471 22.5764 163.374 22.5764C160.276 22.5764 158.04 20.3743 158.04 16.9849C158.04 13.5955 160.275 11.2868 163.374 11.2868C166.473 11.2868 168.733 13.702 168.733 16.9849Z" fill="white"/>
<path d="M138.599 10.6881C138.599 10.2502 138.244 9.89526 137.806 9.89526C137.368 9.89526 137.013 10.2502 137.013 10.6881V23.7054C137.013 24.1433 137.368 24.4982 137.806 24.4982C138.244 24.4982 138.599 24.1433 138.599 23.7054V10.6881Z" fill="white"/>
<path d="M137.806 8.62786C138.244 8.62786 138.599 8.27291 138.599 7.83505C138.599 7.39719 138.244 7.04224 137.806 7.04224C137.368 7.04224 137.013 7.39719 137.013 7.83505C137.013 8.27291 137.368 8.62786 137.806 8.62786Z" fill="white"/>
</svg>
