<svg width="384" height="60" viewBox="0 0 384 60" fill="none" xmlns="http://www.w3.org/2000/svg">
<path d="M283.643 58C284.485 58 285.165 57.3206 285.165 56.4845V43.1474C287.613 46.1356 291.35 47.924 295.812 47.924C303.785 47.924 309.447 42.1294 309.447 33.9933C309.447 25.8572 303.785 19.9565 295.812 19.9565C287.839 19.9565 282.068 25.7511 282.068 33.9933V56.4845C282.068 57.3206 282.803 58 283.643 58ZM295.799 22.7199C301.984 22.7199 306.446 27.3071 306.446 34.0438C306.446 40.7806 301.984 45.1581 295.799 45.1581C289.614 45.1581 285.102 40.5709 285.102 34.0438C285.102 27.5167 289.508 22.7199 295.799 22.7199Z" fill="#333333"/>
<path d="M172.714 43.843V32.2539C172.714 28.7479 169.86 25.9087 166.336 25.9087C162.813 25.9087 159.959 28.7479 159.959 32.2539V43.843C159.959 46.2048 161.887 48.1119 164.251 48.1119H168.411C170.786 48.1119 172.701 46.1947 172.701 43.843H172.714Z" fill="#333333"/>
<path d="M166.357 22.7815C169.885 22.7815 172.744 19.9348 172.744 16.4262C172.744 12.9176 169.885 10.0684 166.357 10.0684C162.828 10.0684 159.972 12.9151 159.972 16.4262C159.972 19.9373 162.831 22.7815 166.357 22.7815Z" fill="#333333"/>
<path d="M134.412 10.1113C123.854 10.1113 115.295 18.6289 115.295 29.1394V41.7667C115.295 45.2727 118.146 48.1119 121.67 48.1119C125.193 48.1119 128.047 45.2727 128.047 41.7667V29.1394C128.047 25.6334 130.901 22.7942 134.424 22.7942C137.948 22.7942 140.799 25.6334 140.799 29.1394V41.7667C140.799 45.2727 143.653 48.1119 147.176 48.1119C150.7 48.1119 153.551 45.2727 153.551 41.7667V29.1394C153.551 18.6289 144.992 10.1113 134.434 10.1113H134.412Z" fill="#333333"/>
<path d="M8.63361 10.1114H2.65137C1.46913 10.1114 0.5 11.0637 0.5 12.2509V18.1945C0.5 18.629 1.0759 18.778 1.29915 18.4067C3.12833 15.3124 5.7389 12.7283 8.83657 10.9046C9.20951 10.6823 9.05983 10.1089 8.62346 10.1089H8.63361V10.1114Z" fill="#EAB722"/>
<path d="M40.971 24.3374C42.0237 23.4255 43.3885 22.8546 44.8776 22.8016C48.5178 22.6627 51.4984 25.7469 51.4984 29.3817V41.5543C51.4984 44.9341 54.0631 47.8793 57.4496 48.1016C61.1659 48.3441 64.2506 45.4115 64.2506 41.7766V29.5939C64.2531 19.0632 55.8413 10.1945 45.2606 10.1213C41.2805 10.0884 37.5743 11.2857 34.5099 13.3318C34.2867 13.4808 34.2664 13.8092 34.4567 13.9885C37.2674 16.7115 39.3323 20.1973 40.2912 24.1176C40.3647 24.4258 40.7376 24.5521 40.9837 24.35L40.9735 24.3399L40.971 24.3374Z" fill="#333333"/>
<path d="M19.6295 10.1113C9.06907 10.1113 0.510132 18.6289 0.510132 29.1369V41.7641C0.510132 45.2702 3.36395 48.1094 6.88748 48.1094C10.411 48.1094 13.2648 45.2702 13.2648 41.7641V29.1369C13.2648 25.6308 16.1186 22.7917 19.6422 22.7917C23.1657 22.7917 26.0195 25.6308 26.0195 29.1369V41.7641C26.0195 45.2702 28.8733 48.1094 32.3968 48.1094C35.9204 48.1094 38.7742 45.2702 38.7742 41.7641V29.1369C38.7691 18.6289 30.2102 10.1113 19.6498 10.1113H19.6295Z" fill="#333333"/>
<path d="M89.7676 10.1216C79.2301 10.1216 70.6813 18.629 70.6813 29.1168C70.6813 39.6046 79.2301 48.112 89.7676 48.112C100.305 48.112 108.854 39.6046 108.854 29.1168C108.854 18.629 100.308 10.1216 89.7676 10.1216ZM89.7676 35.4519C86.2568 35.4519 83.403 32.6127 83.403 29.1168C83.403 25.6209 86.2568 22.7817 89.7676 22.7817C93.2785 22.7817 96.1348 25.6209 96.1348 29.1168C96.1348 32.6127 93.281 35.4519 89.7676 35.4519Z" fill="#333333"/>
<path d="M212.682 32.4482L220.681 46.2652C221.173 47.1367 220.846 48.1167 220.024 48.6068C219.75 48.771 219.476 48.824 219.204 48.824C218.603 48.824 218.002 48.4982 217.672 48.0081L209.291 33.3197C209.073 32.9382 208.664 32.7033 208.223 32.7033H197.016V47.1089C197.016 48.0561 196.244 48.824 195.293 48.824C194.342 48.824 193.571 48.0561 193.571 47.1089V12.9124C193.571 11.311 194.887 10 196.496 10H209.154C217.028 10 220.912 15.6632 220.912 21.3264C220.912 25.7039 218.596 29.9879 213.986 31.8824C213.657 32.0188 212.682 32.4482 212.682 32.4482ZM197.016 29.4928H209.045C214.732 29.4928 217.576 25.3553 217.576 21.2708C217.576 17.1864 214.732 13.213 209.045 13.213H198.246C197.566 13.213 197.016 13.7612 197.016 14.4381V29.4928Z" fill="#333333"/>
<path d="M227.085 35.7463C227.633 42.0082 232.062 46.2013 238.13 46.2013C241.192 46.2013 243.927 45.5471 246.222 44.1856C246.605 43.9128 246.988 43.8597 247.371 43.8597C248.191 43.8597 248.739 44.4584 248.739 45.1656C248.739 45.7112 248.465 46.2543 247.754 46.6357C244.858 48.4873 241.74 49.0859 238.13 49.0859C229.82 49.0859 223.912 43.0413 223.912 34.4934C223.912 25.9456 229.599 19.9565 237.582 19.9565C245.565 19.9565 251.088 25.837 251.088 34.059C251.088 35.3649 250.159 35.7463 249.446 35.7463H227.083H227.085ZM227.085 33.4048H247.919C247.645 27.1429 243.434 22.8412 237.585 22.8412C231.735 22.8412 227.524 27.1429 227.085 33.4048Z" fill="#333333"/>
<path d="M270.98 22.0809C271.637 22.4623 271.91 23.0079 271.91 23.551C271.91 24.2583 271.363 24.8569 270.599 24.8569C270.272 24.8569 269.889 24.7483 269.506 24.5311C267.702 23.4954 265.678 22.8437 263.382 22.8437C259.61 22.8437 257.641 24.968 257.641 27.254C257.641 34.2232 272.897 31.2299 272.897 41.3565C272.897 45.6582 269.397 49.1971 263.164 49.1971C260.102 49.1971 257.476 48.5984 255.072 47.0727C254.361 46.6913 254.087 46.1482 254.087 45.6026C254.087 44.8954 254.635 44.2967 255.455 44.2967C255.838 44.2967 256.221 44.4053 256.604 44.6225C258.463 45.7112 260.706 46.3099 263.166 46.3099C267.595 46.3099 269.782 43.8597 269.782 41.4095C269.782 33.7862 254.58 36.8906 254.58 27.3071C254.58 23.2782 257.641 19.9565 263.385 19.9565C266.228 19.9565 268.689 20.6108 270.985 22.0809H270.98Z" fill="#333333"/>
<path d="M359.773 22.0809C360.43 22.4623 360.704 23.0079 360.704 23.551C360.704 24.2583 360.156 24.8569 359.392 24.8569C359.065 24.8569 358.682 24.7483 358.299 24.5311C356.495 23.4954 354.471 22.8437 352.175 22.8437C348.403 22.8437 346.435 24.968 346.435 27.254C346.435 34.2232 361.69 31.2299 361.69 41.3565C361.69 45.6582 358.19 49.1971 351.957 49.1971C348.895 49.1971 346.27 48.5984 343.865 47.0727C343.155 46.6913 342.881 46.1482 342.881 45.6026C342.881 44.8954 343.429 44.2967 344.248 44.2967C344.631 44.2967 345.014 44.4053 345.397 44.6225C347.256 45.7112 349.499 46.3099 351.96 46.3099C356.389 46.3099 358.575 43.8597 358.575 41.4095C358.575 33.7862 343.373 36.8906 343.373 27.3071C343.373 23.2782 346.435 19.9565 352.178 19.9565C355.021 19.9565 357.482 20.6108 359.778 22.0809H359.773Z" fill="#333333"/>
<path d="M381.582 22.0809C382.239 22.4623 382.513 23.0079 382.513 23.551C382.513 24.2583 381.965 24.8569 381.202 24.8569C380.875 24.8569 380.491 24.7483 380.108 24.5311C378.305 23.4954 376.281 22.8437 373.985 22.8437C370.213 22.8437 368.244 24.968 368.244 27.254C368.244 34.2232 383.5 31.2299 383.5 41.3565C383.5 45.6582 379.999 49.1971 373.767 49.1971C370.705 49.1971 368.079 48.5984 365.674 47.0727C364.964 46.6913 364.69 46.1482 364.69 45.6026C364.69 44.8954 365.238 44.2967 366.057 44.2967C366.441 44.2967 366.824 44.4053 367.207 44.6225C369.066 45.7112 371.308 46.3099 373.769 46.3099C378.198 46.3099 380.385 43.8597 380.385 41.4095C380.385 33.7862 365.182 36.8906 365.182 27.3071C365.182 23.2782 368.244 19.9565 373.987 19.9565C376.831 19.9565 379.292 20.6108 381.587 22.0809H381.582Z" fill="#333333"/>
<path d="M339.881 47.5173V34.0211C339.881 25.7637 334.1 19.9565 326.109 19.9565C318.118 19.9565 312.446 25.8698 312.446 34.0211C312.446 42.1724 318.118 47.9796 326.109 47.9796C330.579 47.9796 334.323 46.1861 336.776 43.1929V47.5173C336.776 48.3559 337.458 49.0354 338.301 49.0354C339.143 49.0354 339.878 48.3559 339.878 47.5173H339.881ZM336.839 34.0741C336.839 40.6139 332.316 45.2086 326.122 45.2086C319.927 45.2086 315.455 40.8235 315.455 34.0741C315.455 27.3248 319.924 22.7275 326.122 22.7275C332.319 22.7275 336.839 27.537 336.839 34.0741Z" fill="#333333"/>
<path d="M279.068 24.2296C279.068 23.3577 278.358 22.6509 277.483 22.6509C276.607 22.6509 275.897 23.3577 275.897 24.2296V47.1641C275.897 48.036 276.607 48.7428 277.483 48.7428C278.358 48.7428 279.068 48.036 279.068 47.1641V24.2296Z" fill="#333333"/>
<path d="M277.483 20.1272C278.358 20.1272 279.068 19.4204 279.068 18.5485C279.068 17.6765 278.358 16.9697 277.483 16.9697C276.607 16.9697 275.897 17.6765 275.897 18.5485C275.897 19.4204 276.607 20.1272 277.483 20.1272Z" fill="#333333"/>
</svg>
