<svg width="267" height="60" viewBox="0 0 267 60" fill="none" xmlns="http://www.w3.org/2000/svg">
<path d="M138.364 0.0780029C122.005 0.0780029 108.742 13.3245 108.742 29.6628C108.742 46.0012 122.005 59.2477 138.364 59.2477C154.722 59.2477 167.985 46.0012 167.985 29.6628C167.985 13.3245 154.727 0.0780029 138.364 0.0780029ZM138.364 39.5611C132.892 39.5611 128.453 35.1319 128.453 29.6628C128.453 24.1938 132.888 19.7646 138.364 19.7646C143.839 19.7646 148.274 24.1938 148.274 29.6628C148.274 35.1319 143.839 39.5611 138.364 39.5611Z" fill="#333333"/>
<path d="M207.586 0.0644531C191.219 0.0644531 177.946 13.3156 177.946 29.6676V49.3176C177.946 54.7682 182.367 59.1838 187.825 59.1838C193.282 59.1838 197.703 54.7682 197.703 49.3176V29.6676C197.703 24.2169 202.124 19.8014 207.582 19.8014C213.039 19.8014 217.46 24.2169 217.46 29.6676V49.3176C217.46 54.7682 221.881 59.1838 227.339 59.1838C232.796 59.1838 237.217 54.7682 237.217 49.3176V29.6676C237.222 13.3201 223.954 0.0644531 207.586 0.0644531Z" fill="#333333"/>
<path d="M266.963 51.9694V34.4997C266.963 29.0491 262.542 24.6335 257.085 24.6335C251.627 24.6335 247.206 29.0491 247.206 34.4997V51.9694C247.206 55.9544 250.439 59.1836 254.429 59.1836H259.74C263.73 59.1836 266.963 55.9544 266.963 51.9694Z" fill="#333333"/>
<path d="M257.103 19.769C262.569 19.769 267 15.3436 267 9.88452C267 4.42545 262.569 0 257.103 0C251.637 0 247.206 4.42545 247.206 9.88452C247.206 15.3436 251.637 19.769 257.103 19.769Z" fill="#333333"/>
<path d="M29.6402 0.0644531C13.2677 0.0644531 0 13.3201 0 29.6676V49.3176C0 54.7682 4.42103 59.1838 9.87853 59.1838C15.336 59.1838 19.7571 54.7682 19.7571 49.3176V29.6676C19.7571 24.2169 24.1781 19.8014 29.6356 19.8014C35.0931 19.8014 39.5141 24.2169 39.5141 29.6676V49.3176C39.5141 54.7682 43.9351 59.1838 49.3926 59.1838C54.8501 59.1838 59.2712 54.7682 59.2712 49.3176V29.6676C59.2757 13.3201 46.0081 0.0644531 29.6402 0.0644531Z" fill="#333333"/>
<path d="M12.5981 0.0644531H3.32953C1.49049 0.0644531 0 1.55309 0 3.38983V12.6422C0 13.3201 0.88971 13.5537 1.23826 12.972C4.08166 8.16719 8.11287 4.13643 12.9283 1.29658C13.5153 0.953052 13.2769 0.0644531 12.5981 0.0644531Z" fill="#EAB722"/>
<path d="M63.6462 21.629C65.1596 20.548 66.9895 19.8839 68.9707 19.8106C74.63 19.5907 79.2391 24.3818 79.2391 30.0386V48.9832C79.2391 54.2369 83.2107 58.8265 88.4618 59.1654C94.2174 59.5365 99.0007 54.9881 99.0007 49.3176V30.3639C99.0007 13.9797 85.9715 0.178978 69.5669 0.0644676C63.7058 0.0232439 58.2438 1.69051 53.6301 4.58533C52.9147 5.03421 52.7679 6.03274 53.3641 6.63735C57.2211 10.5673 60.1057 15.4546 61.6146 20.9053C61.8576 21.7893 62.9033 22.1649 63.6508 21.629H63.6462Z" fill="#333333"/>
</svg>
