<svg width="72" height="16" viewBox="0 0 72 16" fill="none" xmlns="http://www.w3.org/2000/svg">
<path d="M36.897 0.020752C32.5346 0.020752 28.9978 3.55316 28.9978 7.91004C28.9978 12.2669 32.5346 15.7993 36.897 15.7993C41.2593 15.7993 44.7961 12.2669 44.7961 7.91004C44.7961 3.55316 41.2605 0.020752 36.897 0.020752ZM36.897 10.5496C35.438 10.5496 34.2541 9.36845 34.2541 7.91004C34.2541 6.45164 35.4367 5.27051 36.897 5.27051C38.3572 5.27051 39.5398 6.45164 39.5398 7.91004C39.5398 9.36845 38.3572 10.5496 36.897 10.5496Z" fill="white"/>
<path d="M55.3564 0.0170898C50.9917 0.0170898 47.4524 3.55072 47.4524 7.91127V13.1512C47.4524 14.6048 48.6313 15.7822 50.0867 15.7822C51.542 15.7822 52.7209 14.6048 52.7209 13.1512V7.91127C52.7209 6.45775 53.8999 5.28028 55.3552 5.28028C56.8105 5.28028 57.9895 6.45775 57.9895 7.91127V13.1512C57.9895 14.6048 59.1684 15.7822 60.6238 15.7822C62.0791 15.7822 63.258 14.6048 63.258 13.1512V7.91127C63.2593 3.55194 59.7212 0.0170898 55.3564 0.0170898Z" fill="white"/>
<path d="M71.1902 13.8584V9.19983C71.1902 7.74632 70.0112 6.56885 68.5559 6.56885C67.1006 6.56885 65.9216 7.74632 65.9216 9.19983V13.8584C65.9216 14.9211 66.7838 15.7822 67.8478 15.7822H69.264C70.328 15.7822 71.1902 14.9211 71.1902 13.8584Z" fill="white"/>
<path d="M68.5608 5.27174C70.0184 5.27174 71.2 4.09162 71.2 2.63587C71.2 1.18012 70.0184 0 68.5608 0C67.1032 0 65.9216 1.18012 65.9216 2.63587C65.9216 4.09162 67.1032 5.27174 68.5608 5.27174Z" fill="white"/>
<path d="M7.90404 0.017334C3.53805 0.017334 0 3.55219 0 7.91151V13.1515C0 14.605 1.17894 15.7825 2.63427 15.7825C4.08961 15.7825 5.26855 14.605 5.26855 13.1515V7.91151C5.26855 6.45799 6.44749 5.28053 7.90282 5.28053C9.35815 5.28053 10.5371 6.45799 10.5371 7.91151V13.1515C10.5371 14.605 11.716 15.7825 13.1714 15.7825C14.6267 15.7825 15.8056 14.605 15.8056 13.1515V7.91151C15.8069 3.55219 12.2688 0.017334 7.90404 0.017334Z" fill="white"/>
<path d="M3.35949 0.017334H0.887875C0.397465 0.017334 0 0.414302 0 0.904101V3.37141C0 3.55219 0.237256 3.61448 0.330202 3.45936C1.08844 2.17806 2.16343 1.1032 3.44755 0.345902C3.60409 0.254294 3.54049 0.017334 3.35949 0.017334Z" fill="#EAB722"/>
<path d="M16.9724 5.76784C17.376 5.47958 17.864 5.30247 18.3923 5.28292C19.9014 5.22429 21.1305 6.50192 21.1305 8.0104V13.0623C21.1305 14.4633 22.1896 15.6872 23.5899 15.7775C25.1247 15.8765 26.4003 14.6636 26.4003 13.1515V8.09713C26.4003 3.72803 22.9258 0.047825 18.5513 0.017289C16.9883 0.00629603 15.5318 0.450901 14.3014 1.22285C14.1107 1.34255 14.0715 1.60883 14.2305 1.77006C15.259 2.81805 16.0283 4.12133 16.4306 5.57485C16.4955 5.81059 16.7743 5.91074 16.9736 5.76784H16.9724Z" fill="white"/>
</svg>
